<svg width="40" height="40" viewBox="0 0 80 80" fill="none" xmlns="http://www.w3.org/2000/svg">
<path d="M68.0065 11.6322C60.5368 4.1245 50.5772 0 39.9714 0C18.1325 0 0.342123 17.7905 0.323117 39.6294C0.323117 46.6239 2.14777 53.4284 5.60702 59.4536L0 80L21.0216 74.488C26.8187 77.6431 33.338 79.3158 39.9714 79.3158H39.9904C61.8293 79.3158 79.6197 61.5253 79.6387 39.6674C79.6197 29.0805 75.4952 19.1209 68.0065 11.6322ZM39.9714 72.6063C34.0413 72.6063 28.2442 71.0097 23.1884 68.0067L21.9909 67.2844L9.52243 70.5536L12.8486 58.3892L12.0694 57.1347C8.76216 51.8888 7.03254 45.8256 7.03254 39.6104C7.03254 21.4778 21.8199 6.69043 39.9904 6.69043C48.7906 6.69043 57.0586 10.1307 63.2928 16.3459C69.5081 22.5802 72.9293 30.8482 72.9293 39.6484C72.9103 57.838 58.123 72.6063 39.9714 72.6063ZM58.0469 47.9354C57.0586 47.4412 52.1928 45.0463 51.2805 44.7042C50.3682 44.3811 49.7029 44.21 49.0567 45.1984C48.3915 46.1867 46.4908 48.4296 45.9206 49.0758C45.3504 49.741 44.7611 49.8171 43.7728 49.3229C42.7844 48.8287 39.5913 47.7833 35.8089 44.4001C32.8628 41.7771 30.8861 38.527 30.2969 37.5386C29.7267 36.5503 30.2399 36.0181 30.7341 35.5239C31.1712 35.0867 31.7224 34.3645 32.2166 33.7943C32.7108 33.224 32.8819 32.8059 33.205 32.1407C33.5281 31.4754 33.376 30.9052 33.1289 30.411C32.8819 29.9168 30.9051 25.0321 30.0688 23.0554C29.2706 21.1167 28.4533 21.3828 27.845 21.3637C27.2748 21.3257 26.6096 21.3257 25.9444 21.3257C25.2791 21.3257 24.2147 21.5728 23.3024 22.5612C22.3901 23.5495 19.8432 25.9444 19.8432 30.8292C19.8432 35.7139 23.3974 40.4087 23.8916 41.0739C24.3858 41.7391 30.8671 51.7368 40.8077 56.0323C43.1646 57.0587 45.0082 57.6669 46.4528 58.1231C48.8286 58.8833 50.9764 58.7693 52.687 58.5222C54.5877 58.2371 58.5411 56.1273 59.3774 53.8085C60.1947 51.4897 60.1947 49.5129 59.9476 49.0948C59.7005 48.6766 59.0353 48.4296 58.0469 47.9354Z" fill="black"/>
</svg>

